<?xml version="1.0" standalone="no"?>
<!DOCTYPE svg PUBLIC "-//W3C//DTD SVG 20010904//EN"
 "http://www.w3.org/TR/2001/REC-SVG-20010904/DTD/svg10.dtd">
<svg version="1.0" xmlns="http://www.w3.org/2000/svg"
 width="577.000000pt" height="433.000000pt" viewBox="0 0 577.000000 433.000000"
 preserveAspectRatio="xMidYMid meet">

<g transform="translate(0.000000,433.000000) scale(0.100000,-0.100000)"
fill="#000000" stroke="none">
<path d="M2773 3509 c-54 -28 -104 -56 -112 -62 -17 -14 -47 -32 -86 -50 -16
-8 -59 -32 -95 -54 -55 -33 -191 -112 -340 -196 -19 -11 -99 -57 -177 -103
-78 -46 -144 -84 -146 -84 -3 0 -33 -16 -65 -36 -98 -58 -92 -5 -92 -759 0
-754 -6 -701 92 -759 32 -20 63 -36 66 -36 4 0 23 -11 42 -24 30 -20 291 -171
795 -459 175 -100 220 -120 251 -113 13 4 98 49 187 100 90 51 190 108 223
126 32 18 75 43 94 55 19 12 121 70 225 130 355 201 440 253 458 284 16 27 17
83 17 698 0 763 8 697 -94 759 -31 19 -59 34 -61 34 -3 0 -33 17 -68 39 -35
21 -153 89 -263 151 -109 62 -246 141 -304 175 -271 160 -409 234 -437 235 -7
0 -57 -23 -110 -51z m181 -385 c48 -25 86 -46 125 -69 45 -27 190 -111 321
-185 80 -46 159 -91 175 -101 17 -11 39 -23 50 -28 48 -22 106 -74 120 -107
13 -31 15 -105 15 -473 0 -434 0 -436 -23 -476 -15 -27 -43 -52 -87 -79 -53
-32 -475 -276 -560 -323 -14 -8 -47 -28 -75 -43 -115 -67 -144 -69 -230 -17
-11 7 -102 59 -203 117 -101 58 -195 113 -210 122 -15 10 -38 22 -51 28 -75
33 -266 158 -282 185 -18 28 -19 60 -19 490 0 431 1 462 19 491 12 20 62 55
152 108 74 43 141 82 149 87 8 5 76 44 149 86 74 43 155 90 180 105 26 15 62
35 81 44 19 10 42 23 50 29 16 14 67 33 89 34 7 1 36 -11 65 -25z"/>
<path d="M2825 2966 c-27 -13 -122 -65 -210 -116 -88 -51 -215 -123 -281 -162
-67 -38 -132 -81 -145 -94 l-24 -26 -3 -389 c-2 -336 -1 -394 13 -422 12 -26
41 -48 127 -98 61 -35 130 -75 152 -88 291 -169 408 -231 435 -231 22 0 73 26
275 144 82 47 150 86 152 86 1 0 63 36 137 80 108 64 137 86 148 112 19 45 18
763 -1 808 -12 28 -95 83 -285 190 -22 12 -105 60 -185 105 -173 98 -225 125
-242 125 -7 0 -35 -11 -63 -24z"/>
</g>
</svg>
